<svg width="218" height="35" viewBox="0 0 218 35" fill="none" xmlns="http://www.w3.org/2000/svg">
<path d="M0.505781 26L9.79378 0.799998H12.9978L22.2498 26H19.0458L16.7418 19.52H6.01378L3.67378 26H0.505781ZM6.91378 17.072H15.8418L11.3778 4.616L6.91378 17.072ZM32.9317 26.432C31.1557 26.432 29.5957 26.024 28.2517 25.208C26.9317 24.392 25.8997 23.276 25.1557 21.86C24.4357 20.444 24.0757 18.836 24.0757 17.036C24.0757 15.236 24.4477 13.64 25.1917 12.248C25.9357 10.832 26.9677 9.728 28.2877 8.936C29.6077 8.12 31.1677 7.712 32.9677 7.712C34.4317 7.712 35.7277 8.012 36.8557 8.612C37.9837 9.212 38.8597 10.052 39.4837 11.132V0.079999H42.5077V26H39.7717L39.4837 23.048C38.9077 23.912 38.0797 24.692 36.9997 25.388C35.9197 26.084 34.5637 26.432 32.9317 26.432ZM33.2557 23.804C34.4557 23.804 35.5117 23.528 36.4237 22.976C37.3597 22.4 38.0797 21.608 38.5837 20.6C39.1117 19.592 39.3757 18.416 39.3757 17.072C39.3757 15.728 39.1117 14.552 38.5837 13.544C38.0797 12.536 37.3597 11.756 36.4237 11.204C35.5117 10.628 34.4557 10.34 33.2557 10.34C32.0797 10.34 31.0237 10.628 30.0877 11.204C29.1757 11.756 28.4557 12.536 27.9277 13.544C27.4237 14.552 27.1717 15.728 27.1717 17.072C27.1717 18.416 27.4237 19.592 27.9277 20.6C28.4557 21.608 29.1757 22.4 30.0877 22.976C31.0237 23.528 32.0797 23.804 33.2557 23.804ZM55.4651 26.432C53.7611 26.432 52.2491 26.048 50.9291 25.28C49.6091 24.488 48.5651 23.396 47.7971 22.004C47.0531 20.612 46.6811 18.968 46.6811 17.072C46.6811 15.2 47.0531 13.568 47.7971 12.176C48.5411 10.76 49.5731 9.668 50.8931 8.9C52.2371 8.108 53.7851 7.712 55.5371 7.712C57.2651 7.712 58.7531 8.108 60.0011 8.9C61.2731 9.668 62.2451 10.688 62.9171 11.96C63.5891 13.232 63.9251 14.6 63.9251 16.064C63.9251 16.328 63.9131 16.592 63.8891 16.856C63.8891 17.12 63.8891 17.42 63.8891 17.756H49.6691C49.7411 19.124 50.0531 20.264 50.6051 21.176C51.1811 22.064 51.8891 22.736 52.7291 23.192C53.5931 23.648 54.5051 23.876 55.4651 23.876C56.7131 23.876 57.7571 23.588 58.5971 23.012C59.4371 22.436 60.0491 21.656 60.4331 20.672H63.4211C62.9411 22.328 62.0171 23.708 60.6491 24.812C59.3051 25.892 57.5771 26.432 55.4651 26.432ZM55.4651 10.268C54.0251 10.268 52.7411 10.712 51.6131 11.6C50.5091 12.464 49.8731 13.736 49.7051 15.416H60.9371C60.8651 13.808 60.3131 12.548 59.2811 11.636C58.2491 10.724 56.9771 10.268 55.4651 10.268ZM74.8838 20.384C73.8758 20.384 72.9518 20.252 72.1118 19.988L70.3118 21.68C70.5758 21.872 70.8998 22.04 71.2838 22.184C71.6918 22.304 72.2678 22.424 73.0118 22.544C73.7558 22.64 74.7998 22.748 76.1438 22.868C78.5438 23.036 80.2598 23.588 81.2918 24.524C82.3238 25.46 82.8398 26.684 82.8398 28.196C82.8398 29.228 82.5518 30.212 81.9758 31.148C81.4238 32.084 80.5598 32.852 79.3838 33.452C78.2318 34.052 76.7438 34.352 74.9198 34.352C73.3118 34.352 71.8838 34.136 70.6357 33.704C69.3878 33.296 68.4158 32.66 67.7197 31.796C67.0238 30.956 66.6758 29.888 66.6758 28.592C66.6758 27.92 66.8558 27.188 67.2158 26.396C67.5758 25.628 68.2478 24.896 69.2318 24.2C68.7038 23.984 68.2478 23.756 67.8638 23.516C67.5038 23.252 67.1678 22.964 66.8558 22.652V21.824L69.9158 18.8C68.4998 17.6 67.7918 16.016 67.7918 14.048C67.7918 12.872 68.0678 11.804 68.6198 10.844C69.1718 9.884 69.9758 9.128 71.0318 8.576C72.0878 8 73.3718 7.712 74.8838 7.712C75.9158 7.712 76.8518 7.856 77.6918 8.144H84.2798V10.412L80.9318 10.556C81.6278 11.564 81.9758 12.728 81.9758 14.048C81.9758 15.224 81.6878 16.292 81.1118 17.252C80.5598 18.212 79.7558 18.98 78.6998 19.556C77.6678 20.108 76.3958 20.384 74.8838 20.384ZM74.8838 17.9C76.1558 17.9 77.1638 17.576 77.9078 16.928C78.6758 16.256 79.0598 15.296 79.0598 14.048C79.0598 12.824 78.6758 11.888 77.9078 11.24C77.1638 10.568 76.1558 10.232 74.8838 10.232C73.5878 10.232 72.5558 10.568 71.7878 11.24C71.0438 11.888 70.6718 12.824 70.6718 14.048C70.6718 15.296 71.0438 16.256 71.7878 16.928C72.5558 17.576 73.5878 17.9 74.8838 17.9ZM69.6278 28.304C69.6278 29.504 70.1318 30.392 71.1398 30.968C72.1478 31.568 73.4078 31.868 74.9198 31.868C76.4078 31.868 77.5958 31.544 78.4838 30.896C79.3958 30.248 79.8518 29.384 79.8518 28.304C79.8518 27.536 79.5398 26.864 78.9158 26.288C78.2918 25.736 77.1398 25.412 75.4598 25.316C74.1398 25.22 72.9998 25.1 72.0398 24.956C71.0558 25.484 70.4078 26.048 70.0957 26.648C69.7838 27.272 69.6278 27.824 69.6278 28.304ZM93.631 26.432C92.143 26.432 90.907 26.18 89.923 25.676C88.939 25.172 88.207 24.5 87.727 23.66C87.247 22.82 87.007 21.908 87.007 20.924C87.007 19.1 87.703 17.696 89.095 16.712C90.487 15.728 92.383 15.236 94.783 15.236H99.607V15.02C99.607 13.46 99.199 12.284 98.383 11.492C97.567 10.676 96.475 10.268 95.107 10.268C93.931 10.268 92.911 10.568 92.047 11.168C91.207 11.744 90.679 12.596 90.463 13.724H87.367C87.487 12.428 87.919 11.336 88.663 10.448C89.431 9.56 90.379 8.888 91.507 8.432C92.635 7.952 93.835 7.712 95.107 7.712C97.603 7.712 99.475 8.384 100.723 9.728C101.995 11.048 102.631 12.812 102.631 15.02V26H99.931L99.751 22.796C99.247 23.804 98.503 24.668 97.519 25.388C96.559 26.084 95.263 26.432 93.631 26.432ZM94.099 23.876C95.251 23.876 96.235 23.576 97.051 22.976C97.891 22.376 98.527 21.596 98.959 20.636C99.391 19.676 99.607 18.668 99.607 17.612V17.576H95.035C93.259 17.576 91.999 17.888 91.255 18.512C90.535 19.112 90.175 19.868 90.175 20.78C90.175 21.716 90.511 22.472 91.183 23.048C91.879 23.6 92.851 23.876 94.099 23.876Z" fill="black"/>
<path d="M115.736 26.432C113.888 26.432 112.256 26.12 110.84 25.496C109.424 24.848 108.308 23.936 107.492 22.76C106.676 21.56 106.256 20.108 106.232 18.404H111.092C111.14 19.58 111.56 20.576 112.352 21.392C113.168 22.184 114.284 22.58 115.7 22.58C116.924 22.58 117.896 22.292 118.616 21.716C119.336 21.116 119.696 20.324 119.696 19.34C119.696 18.308 119.372 17.504 118.724 16.928C118.1 16.352 117.26 15.884 116.204 15.524C115.148 15.164 114.02 14.78 112.82 14.372C110.876 13.7 109.388 12.836 108.356 11.78C107.348 10.724 106.844 9.32 106.844 7.568C106.82 6.08 107.168 4.808 107.888 3.752C108.632 2.672 109.64 1.844 110.912 1.268C112.184 0.667999 113.648 0.368 115.304 0.368C116.984 0.368 118.46 0.667999 119.732 1.268C121.028 1.868 122.036 2.708 122.756 3.788C123.5 4.868 123.896 6.152 123.944 7.64H119.012C118.988 6.752 118.64 5.972 117.968 5.3C117.32 4.604 116.408 4.256 115.232 4.256C114.224 4.232 113.372 4.484 112.676 5.012C112.004 5.516 111.668 6.26 111.668 7.244C111.668 8.084 111.932 8.756 112.46 9.26C112.988 9.74 113.708 10.148 114.62 10.484C115.532 10.82 116.576 11.18 117.752 11.564C119 11.996 120.14 12.5 121.172 13.076C122.204 13.652 123.032 14.42 123.656 15.38C124.28 16.316 124.592 17.528 124.592 19.016C124.592 20.336 124.256 21.56 123.584 22.688C122.912 23.816 121.916 24.728 120.596 25.424C119.276 26.096 117.656 26.432 115.736 26.432ZM137.18 26.432C135.38 26.432 133.784 26.048 132.392 25.28C131 24.512 129.908 23.432 129.116 22.04C128.324 20.648 127.928 19.04 127.928 17.216C127.928 15.368 128.312 13.724 129.08 12.284C129.872 10.844 130.952 9.728 132.32 8.936C133.712 8.12 135.344 7.712 137.216 7.712C138.968 7.712 140.516 8.096 141.86 8.864C143.204 9.632 144.248 10.688 144.992 12.032C145.76 13.352 146.144 14.828 146.144 16.46C146.144 16.724 146.132 17 146.108 17.288C146.108 17.576 146.096 17.876 146.072 18.188H132.5C132.596 19.58 133.076 20.672 133.94 21.464C134.828 22.256 135.896 22.652 137.144 22.652C138.08 22.652 138.86 22.448 139.484 22.04C140.132 21.608 140.612 21.056 140.924 20.384H145.604C145.268 21.512 144.704 22.544 143.912 23.48C143.144 24.392 142.184 25.112 141.032 25.64C139.904 26.168 138.62 26.432 137.18 26.432ZM137.216 11.456C136.088 11.456 135.092 11.78 134.228 12.428C133.364 13.052 132.812 14.012 132.572 15.308H141.464C141.392 14.132 140.96 13.196 140.168 12.5C139.376 11.804 138.392 11.456 137.216 11.456ZM158.768 26.432C156.944 26.432 155.336 26.036 153.944 25.244C152.552 24.452 151.448 23.348 150.632 21.932C149.84 20.516 149.444 18.896 149.444 17.072C149.444 15.248 149.84 13.628 150.632 12.212C151.448 10.796 152.552 9.692 153.944 8.9C155.336 8.108 156.944 7.712 158.768 7.712C161.048 7.712 162.968 8.312 164.528 9.512C166.088 10.688 167.084 12.32 167.516 14.408H162.656C162.416 13.544 161.936 12.872 161.216 12.392C160.52 11.888 159.692 11.636 158.732 11.636C157.46 11.636 156.38 12.116 155.492 13.076C154.604 14.036 154.16 15.368 154.16 17.072C154.16 18.776 154.604 20.108 155.492 21.068C156.38 22.028 157.46 22.508 158.732 22.508C159.692 22.508 160.52 22.268 161.216 21.788C161.936 21.308 162.416 20.624 162.656 19.736H167.516C167.084 21.752 166.088 23.372 164.528 24.596C162.968 25.82 161.048 26.432 158.768 26.432ZM171.606 26V8.144H175.71L176.142 11.492C176.79 10.34 177.666 9.428 178.77 8.756C179.898 8.06 181.218 7.712 182.73 7.712V12.572H181.434C180.426 12.572 179.526 12.728 178.734 13.04C177.942 13.352 177.318 13.892 176.862 14.66C176.43 15.428 176.214 16.496 176.214 17.864V26H171.606ZM194.239 26.432C192.439 26.432 190.843 26.048 189.451 25.28C188.059 24.512 186.967 23.432 186.175 22.04C185.383 20.648 184.987 19.04 184.987 17.216C184.987 15.368 185.371 13.724 186.139 12.284C186.931 10.844 188.011 9.728 189.379 8.936C190.771 8.12 192.403 7.712 194.275 7.712C196.027 7.712 197.575 8.096 198.919 8.864C200.263 9.632 201.307 10.688 202.051 12.032C202.819 13.352 203.203 14.828 203.203 16.46C203.203 16.724 203.191 17 203.167 17.288C203.167 17.576 203.155 17.876 203.131 18.188H189.559C189.655 19.58 190.135 20.672 190.999 21.464C191.887 22.256 192.955 22.652 194.203 22.652C195.139 22.652 195.919 22.448 196.543 22.04C197.191 21.608 197.671 21.056 197.983 20.384H202.663C202.327 21.512 201.763 22.544 200.971 23.48C200.203 24.392 199.243 25.112 198.091 25.64C196.963 26.168 195.679 26.432 194.239 26.432ZM194.275 11.456C193.147 11.456 192.151 11.78 191.287 12.428C190.423 13.052 189.871 14.012 189.631 15.308H198.523C198.451 14.132 198.019 13.196 197.227 12.5C196.435 11.804 195.451 11.456 194.275 11.456ZM214.718 26C212.846 26 211.346 25.544 210.218 24.632C209.09 23.72 208.526 22.1 208.526 19.772V11.996H205.466V8.144H208.526L209.066 3.356H213.134V8.144H217.958V11.996H213.134V19.808C213.134 20.672 213.314 21.272 213.674 21.608C214.058 21.92 214.706 22.076 215.618 22.076H217.85V26H214.718Z" fill="#BB57AC"/>
</svg>
